<svg width="120" height="120" viewBox="0 0 120 120" fill="none" xmlns="http://www.w3.org/2000/svg">
<g clip-path="url(#clip0_29_121)">
<path d="M60 120C93.1371 120 120 93.1371 120 60C120 26.8629 93.1371 0 60 0C26.8629 0 0 26.8629 0 60C0 93.1371 26.8629 120 60 120Z" fill="white"/>
<path fill-rule="evenodd" clip-rule="evenodd" d="M59.8993 22.5515C58.7019 22.8187 57.1218 23.5084 56.0402 24.2355C55.3112 24.7257 55.2293 24.7426 53.474 24.7637C51.8607 24.7831 51.5548 24.8339 50.6961 25.2258C49.3373 25.8458 48.4696 26.5942 47.547 27.9423C46.5372 29.4179 45.8023 31.1396 45.231 33.3688C44.5273 36.1149 44.2657 38.291 44.0931 42.8315C43.7654 51.4458 43.25 54.4955 41.918 55.6997C41.2991 56.2595 41.3383 57.0482 42.0228 57.8034C43.3366 59.2532 45.8796 60.7798 47.9804 61.3802L48.856 61.6302L47.9804 62.4663C47.1348 63.274 46.9206 63.3744 41.6813 65.4126C35.7616 67.7158 35.1175 68.0709 34.0975 69.5915C33.7914 70.0477 33.4271 70.7789 33.2878 71.2161C32.9554 72.2599 28.4745 92.0296 28.4745 92.4523C28.4745 92.937 29.1915 93.5583 29.7508 93.5583C30.8548 93.5583 30.7476 93.8902 33.364 82.3916C34.6897 76.5657 35.8847 71.5908 36.0191 71.3365C36.664 70.1176 37.3885 69.7662 46.4949 66.2516C46.6523 66.191 46.6983 66.7265 46.6983 68.6197C46.6983 70.536 46.7512 71.1397 46.9421 71.4063C47.0902 71.6128 47.6977 71.913 48.4879 72.1702C49.204 72.4033 49.7898 72.6258 49.7898 72.6645C49.7898 72.7033 49.3871 73.3231 48.8949 74.0414C47.8535 75.5618 47.7736 76.0513 48.4647 76.6784C48.7204 76.9102 51.9388 79.4972 55.6165 82.427L62.3036 87.7542L62.3111 90.2658C62.3184 92.7163 62.3284 92.7873 62.7181 93.168C63.2465 93.6844 63.9941 93.6844 64.5225 93.168C64.9175 92.7822 64.922 92.7448 64.9228 89.8684C64.9238 86.975 64.921 86.9522 64.4123 85.7168C64.1223 85.0121 63.9634 84.419 64.0454 84.3466C64.1249 84.2762 66.24 82.5905 68.7457 80.6003C71.2515 78.6102 73.4664 76.8077 73.6678 76.5948C74.2336 75.9964 74.1276 75.4847 73.139 74.0414C72.6468 73.3231 72.244 72.7033 72.244 72.6645C72.244 72.6258 72.8298 72.4033 73.5459 72.1702C74.3361 71.913 74.9436 71.6128 75.0917 71.4063C75.2827 71.1397 75.3356 70.536 75.3356 68.6197C75.3356 66.7265 75.3815 66.191 75.539 66.2516C84.6453 69.7662 85.3698 70.1176 86.0148 71.3365C86.1492 71.5908 87.3441 76.5657 88.6698 82.3916C91.2862 93.8902 91.179 93.5583 92.283 93.5583C92.8428 93.5583 93.5593 92.9368 93.5593 92.4513C93.5593 92.2717 92.4929 87.4204 91.1896 81.6704C89.6396 74.8324 88.6822 70.9346 88.4217 70.402C87.9148 69.3649 86.8844 68.2188 86.0178 67.7276C85.6462 67.5171 82.9993 66.4349 80.1356 65.3227C75.3787 63.4751 74.8621 63.2378 74.1569 62.5741C73.7324 62.1749 73.4396 61.8043 73.5061 61.751C73.5726 61.6975 74.1695 61.5315 74.8326 61.3822C77.2928 60.828 79.307 59.5035 80.123 57.9033C80.676 56.8186 80.6648 56.2692 80.0784 55.7339C78.6169 54.3997 78.1387 51.5302 77.9422 42.911C77.8002 36.6848 77.6644 35.4018 76.8567 32.6701C75.2892 27.3675 71.8377 24.0195 66.6691 22.7878C64.8614 22.357 61.3232 22.2336 59.8993 22.5515ZM66.3051 25.329C70.3041 26.3437 72.9124 28.8928 74.2637 33.1066C75.0687 35.6174 75.1804 36.659 75.3307 43.0698C75.5131 50.8499 75.903 53.6632 77.1268 56.0327L77.6383 57.0234L77.1164 57.5498C76.2307 58.4426 74.2948 59.097 71.9442 59.2973C70.7605 59.3982 70.596 59.3764 70.1381 59.0579C69.8615 58.8653 69.2522 58.5759 68.7844 58.4148C67.8181 58.0822 67.7296 57.9187 67.7044 56.4189C67.6891 55.51 67.7211 55.4256 68.279 54.9081C69.1137 54.134 70.3454 52.2539 70.8636 50.9632C71.2102 50.0996 71.5267 49.6525 72.35 48.8626C74.2906 47.001 75.0724 44.6937 74.4604 42.6354C74.224 41.8416 73.9842 41.5375 72.203 39.7759C69.8973 37.4957 69.2674 37.0528 65.2238 34.8673C60.3795 32.2491 59.1026 31.2832 58.4164 29.7187C58.0893 28.9733 57.7049 28.6788 57.0594 28.6788C56.3186 28.6788 56.0001 29.1374 55.5689 30.8256C54.9518 33.2402 54.3008 34.3798 52.383 36.4017C51.4759 37.358 50.5135 38.5178 50.2442 38.9789C49.9749 39.4399 49.3259 40.2427 48.8019 40.7628C47.6207 41.9353 47.2564 42.9364 47.4002 44.6138C47.5308 46.1353 48.2286 47.4523 49.6308 48.8233C50.4193 49.5946 50.8405 50.1602 51.0895 50.7824C51.6781 52.2527 52.5327 53.6089 53.5236 54.6448L54.4686 55.6324L54.3608 56.7775C54.3016 57.4072 54.2011 57.9734 54.1373 58.0359C54.0736 58.0981 53.6562 58.2749 53.2102 58.4284C52.764 58.5818 52.1735 58.8645 51.8979 59.0563C51.4255 59.385 51.3264 59.3947 50.1775 59.2277C48.614 59.0005 46.8876 58.3428 45.5835 57.4772C44.8478 56.989 44.5775 56.7185 44.6373 56.531C44.6835 56.3866 44.9184 55.8075 45.1594 55.2441C46.0698 53.1153 46.3977 50.5052 46.6979 42.9903C46.9149 37.557 47.3424 34.7817 48.4129 31.8592C49.2482 29.5782 50.3483 28.1856 51.8154 27.5522C52.5482 27.2359 52.7849 27.2144 54.4474 27.3114L56.2741 27.4182L57.131 26.6744C58.0468 25.8795 58.9753 25.4085 60.2847 25.0747C61.4562 24.7761 64.6596 24.9114 66.3051 25.329ZM59.7966 34.6995C60.423 35.1224 62.1803 36.132 63.7017 36.9435C67.5187 38.9793 68.1557 39.4247 70.2679 41.534L72.1157 43.379L72.0466 44.1942C71.93 45.5677 71.1097 46.8161 69.6929 47.7767C69.1281 48.1597 68.9672 48.3925 68.7429 49.1522C67.2069 54.349 62.1026 56.808 57.5215 54.5577C55.6934 53.6601 53.9774 51.4747 53.2999 49.1821C53.0717 48.4096 52.911 48.1983 52.0308 47.5125C50.604 46.4012 50.0339 45.4442 50.0339 44.1612C50.0339 43.1711 50.0428 43.1514 50.872 42.3201C51.3329 41.8578 51.9848 41.0504 52.3206 40.5256C52.6564 40.0009 53.5068 38.9817 54.2105 38.2609C55.5844 36.8528 56.6859 35.3083 57.276 33.962L57.6435 33.1233L58.1505 33.527C58.4294 33.7491 59.1701 34.2769 59.7966 34.6995ZM61.0169 57.8355C62.6396 57.8355 63.2567 57.7688 64.069 57.5056L65.0868 57.1757L65.159 57.5172C65.1984 57.705 65.2771 58.3595 65.3337 58.9719C65.3902 59.5841 65.6109 61.101 65.8238 62.3431L66.2111 64.6013L65.2299 66.9515C64.6903 68.2442 64.1748 69.3891 64.084 69.4957C63.9935 69.6022 63.3726 69.8085 62.7042 69.9537C61.2516 70.2696 59.8897 70.1709 58.5941 69.6563L57.7171 69.3079L56.7632 66.9376L55.8091 64.5673L56.0546 63.2803C56.293 62.029 56.9414 57.7243 56.9465 57.3586C56.9483 57.2372 57.2884 57.2864 57.9661 57.506C58.777 57.7688 59.3951 57.8355 61.0169 57.8355ZM53.7823 61.3174C53.4282 62.8692 53.2023 64.558 53.2918 64.9822C53.3508 65.2623 54.9262 69.2516 56.7925 73.8474C58.6592 78.4434 60.268 82.4138 60.3681 82.6707L60.5497 83.1378L60.1733 82.8029C59.9662 82.6186 57.9295 80.9839 55.6474 79.1703C53.3654 77.3567 51.3998 75.7818 51.2794 75.6706C51.098 75.5028 51.2442 75.1999 52.1337 73.9001C53.7419 71.5497 53.6127 71.1344 51.0101 70.2866L49.383 69.7568L49.3379 67.3135L49.2929 64.8702L50.8023 63.3747C52.2667 61.9239 53.4327 60.9596 53.7223 60.9596C53.8002 60.9596 53.8271 61.1205 53.7823 61.3174ZM69.0874 61.4195C69.4364 61.6725 70.4013 62.5521 71.2316 63.3747L72.7409 64.8702L72.696 67.3135L72.6508 69.7568L71.0237 70.2866C68.4211 71.1344 68.292 71.5497 69.9002 73.9001C70.7918 75.2032 70.9362 75.5028 70.7544 75.6732C70.634 75.7859 68.8165 77.2499 66.7155 78.9262L62.8954 81.9744L62.6111 81.3201L62.3268 80.6658L65.4122 73.2618C67.1093 69.1898 68.5781 65.5662 68.6764 65.2092C68.8401 64.6151 68.7065 63.3228 68.2655 61.2378C68.1836 60.8504 68.3542 60.8882 69.0874 61.4195ZM61.7898 72.6704C62.3491 72.6205 62.8068 72.6126 62.8068 72.6529C62.8068 72.693 62.3931 73.7359 61.8874 74.9709L60.9681 77.2163L60.0972 75.0956C58.8842 72.1422 58.9049 72.4235 59.9143 72.6057C60.3866 72.6909 61.2305 72.72 61.7898 72.6704ZM37.9859 74.8666C37.4859 75.3549 37.4884 75.674 38.0046 77.2538C38.7502 79.5356 38.8861 81.0629 38.8871 87.165L38.8881 92.7777L39.2876 93.168C39.8217 93.6901 40.5636 93.6846 41.1063 93.1542L41.5198 92.75L41.4474 86.3563C41.3823 80.604 41.3412 79.8187 41.0371 78.5311C40.4843 76.1909 40.0495 74.9864 39.6608 74.7203C39.131 74.3577 38.4451 74.4175 37.9859 74.8666ZM82.3737 74.7199C81.7786 75.1273 80.8741 78.3456 80.6211 80.9561L80.5094 82.1091H75.7183H70.9275L70.5282 82.4994L70.1288 82.8897V87.8337V92.7777L70.5282 93.168L70.9275 93.5583H76.6118C81.9642 93.5583 82.3185 93.5406 82.6802 93.2547L83.0644 92.9508L83.1659 86.5361C83.2722 79.7998 83.3567 78.9936 84.1916 76.7221C84.5463 75.7572 84.5125 75.3203 84.048 74.8666C83.5889 74.4177 82.9029 74.3577 82.3737 74.7199ZM48.3994 82.4994C48.0311 82.8592 48 83.0079 48 84.4076V85.9255H46.4469C45.0146 85.9255 44.8625 85.9558 44.4943 86.3158C43.9659 86.8322 43.9659 87.563 44.4943 88.0794C44.8625 88.4394 45.0146 88.4697 46.4469 88.4697H48V89.9876C48 91.3873 48.0311 91.536 48.3994 91.8958C48.6512 92.1419 48.9848 92.2861 49.3017 92.2861C49.6185 92.2861 49.9521 92.1419 50.2039 91.8958C50.5722 91.536 50.6034 91.3873 50.6034 89.9876V88.4697H52.1564C53.5887 88.4697 53.7409 88.4394 54.109 88.0794C54.3608 87.8333 54.5084 87.5073 54.5084 87.1975C54.5084 86.8877 54.3608 86.5619 54.109 86.3158C53.7409 85.9558 53.5887 85.9255 52.1564 85.9255H50.6034V84.4076C50.6034 83.0079 50.5722 82.8592 50.2039 82.4994C49.9521 82.2533 49.6185 82.1091 49.3017 82.1091C48.9848 82.1091 48.6512 82.2533 48.3994 82.4994ZM80.5423 87.8337V91.0141H76.6373H72.7322V87.8337V84.6533H76.6373H80.5423V87.8337ZM58.813 88.8602C58.0057 89.649 58.5777 91.0141 59.7152 91.0141C60.3842 91.0141 61.0169 90.3956 61.0169 89.7419C61.0169 89.0882 60.3842 88.4697 59.7152 88.4697C59.3983 88.4697 59.0648 88.6139 58.813 88.8602Z" fill="#236261"/>
</g>
<defs>
<clipPath id="clip0_29_121">
<rect width="120" height="120" fill="white"/>
</clipPath>
</defs>
</svg>
