<svg width="120" height="120" viewBox="0 0 120 120" fill="none" xmlns="http://www.w3.org/2000/svg">
<g clip-path="url(#clip0_29_115)">
<path d="M60 120C93.1371 120 120 93.1371 120 60C120 26.8629 93.1371 0 60 0C26.8629 0 0 26.8629 0 60C0 93.1371 26.8629 120 60 120Z" fill="white"/>
<path fill-rule="evenodd" clip-rule="evenodd" d="M72.2467 20.7517C71.8265 21.2715 71.9276 21.6234 72.73 22.4333L73.3467 23.0563L70.6399 25.6831L67.9332 28.3102L67.2631 27.5687C66.5445 26.7734 65.7846 26.2237 65.4027 26.222C65.2727 26.2214 59.6376 31.6001 52.8799 38.174C43.7846 47.0227 40.5936 50.2188 40.5936 50.4801C40.5936 50.677 40.8757 51.131 41.2314 51.5067L41.8692 52.1801L40.4471 53.5536C39.5949 54.3767 38.9799 55.1056 38.9123 55.3723C38.806 55.7929 39.0098 56.0213 42.6055 59.5119C44.8239 61.6654 46.5336 63.2062 46.7048 63.2062C46.8665 63.2062 47.7055 62.5306 48.5691 61.7048C50.1014 60.2396 50.145 60.2115 50.3752 60.5315C50.6736 60.946 51.5913 61.5041 51.9744 61.5041C52.1433 61.5041 53.8877 59.9309 56.1081 57.7768L59.95 54.0492L60.7633 54.4505C61.2108 54.671 61.9261 54.9244 62.353 55.0135L63.129 55.1754L63.5516 57.0631C64.3033 60.4202 64.4872 62.2178 64.4014 65.3728C64.3387 67.6818 64.2578 68.4551 63.9834 69.3698C63.014 72.599 61.102 74.5343 58.2297 75.1932C57.4694 75.3675 56.2312 75.4273 53.3547 75.4292L49.4984 75.4314V74.2709V73.1101H52.6434C55.2325 73.1101 55.8509 73.0676 56.1417 72.8693C56.4852 72.6352 56.4952 72.5479 56.4952 69.7831C56.4952 67.0182 56.4852 66.9309 56.1417 66.6968C55.8287 66.4833 54.2471 66.456 42.2632 66.456C30.2793 66.456 28.6977 66.4833 28.3847 66.6968C28.0414 66.9309 28.0312 67.0188 28.0312 69.768C28.0312 72.313 28.0605 72.6238 28.322 72.854C28.5724 73.0745 29.0587 73.1101 31.8203 73.1101H35.028V74.4897V75.8693L34.2293 76.4398C33.2713 77.1242 32.1384 78.6216 31.5964 79.9202C31.188 80.8979 30.681 82.8484 30.5001 84.1361L30.3968 84.8711H28.737C26.3603 84.8711 26.4411 84.7528 26.4411 88.2517C26.4411 90.7304 26.4708 91.0393 26.7319 91.2694C27.0002 91.5057 29.3947 91.5254 57.9484 91.5254C84.4062 91.5254 88.9184 91.4937 89.1826 91.3058C89.4685 91.1024 89.4913 90.8791 89.4913 88.2744C89.4913 84.7591 89.5705 84.8711 87.0883 84.8711H85.4363V83.6266C85.4363 81.9378 85.0255 78.4153 84.5437 75.973C82.6822 66.5357 78.1113 57.2209 71.6825 49.7644C70.6863 48.6088 70.4166 48.1849 70.307 47.6034C70.2321 47.2056 69.9618 46.4671 69.7066 45.9625L69.2422 45.0446L72.9266 41.3459C75.7965 38.4647 76.622 37.5466 76.6609 37.1925C76.7024 36.815 76.5427 36.5675 75.7151 35.7289L74.7191 34.7197L77.4071 32.1004L80.0947 29.4814L80.7753 30.1725C81.5357 30.9452 82.0582 31.0558 82.574 30.554C83.2863 29.8607 83.1832 29.7258 78.2408 24.889C74.0841 20.8214 73.5358 20.3376 73.0843 20.339C72.7279 20.34 72.481 20.4616 72.2467 20.7517ZM75.8963 30.7841L73.1923 33.4155L71.325 31.5982L69.4576 29.7812L72.1576 27.1503L74.8576 24.5195L76.729 26.3359L78.6004 28.1524L75.8963 30.7841ZM71.0813 40.4221L67.8568 43.5602L66.7196 42.9926C65.7972 42.5319 65.363 42.4119 64.418 42.3568C61.6953 42.1981 59.0754 43.8313 57.7831 46.4933C57.4229 47.2351 57.3698 47.5456 57.3698 48.9104C57.3698 50.4049 57.396 50.5263 57.9435 51.5646L58.5171 52.6528L55.1998 55.8781L51.8825 59.1037L47.4708 54.8103L43.0591 50.5168L54.2687 39.6071L65.4783 28.6977L69.8919 32.9909L74.3058 37.284L71.0813 40.4221ZM65.4803 44.5831C68.2851 45.5132 69.2018 49.6401 67.0989 51.8707C66.1812 52.8443 65.3062 53.196 63.8384 53.1812C61.3812 53.1566 59.7663 51.7432 59.4397 49.3316C59.3054 48.3385 59.6579 46.9011 60.2494 46.0314C61.2437 44.569 63.5296 43.9361 65.4803 44.5831ZM62.5277 45.9903C61.0257 46.7315 60.3218 48.1513 60.7129 49.6503C61.0601 50.9815 62.3286 51.9096 63.8006 51.9096C65.1547 51.9096 66.3773 51.0814 66.935 49.7866C67.5651 48.3234 66.6871 46.4715 65.0475 45.805C64.1919 45.4574 63.5054 45.5079 62.5277 45.9903ZM64.4858 48.0108C64.9243 48.3771 64.8557 49.341 64.3648 49.7168C63.9004 50.0721 63.4279 50.0046 63.0895 49.5346C62.6461 48.9185 62.882 47.9837 63.542 47.7407C63.912 47.6044 64.0452 47.6427 64.4858 48.0108ZM71.1608 52.2964C72.1288 53.486 74.6231 57.0035 74.6231 57.1784C74.6231 57.2388 74.4112 57.3736 74.1521 57.478C72.89 57.9869 71.4675 60.2083 70.8309 62.6648C70.1892 65.1411 70.091 66.3385 70.0951 71.64C70.0989 76.6835 70.2218 78.5496 70.8661 83.3624L71.0681 84.8711H51.7759C33.5077 84.8711 32.4838 84.8569 32.4856 84.6004C32.4869 84.4515 32.6239 83.6876 32.7903 82.9027C33.2972 80.5127 34.45 78.5894 35.8869 77.7366C36.3568 77.458 36.8636 77.4444 46.7622 77.4437C58.2696 77.4431 58.5553 77.4228 60.7092 76.4473C62.7008 75.5455 64.1526 74.0776 65.1854 71.9215C66.071 70.0727 66.3683 68.5896 66.4668 65.5275C66.5642 62.5058 66.3216 60.05 65.6329 57.0838C65.1716 55.0971 65.1651 55.0046 65.4895 55.0046C66.0002 55.0046 67.4953 54.1831 68.3203 53.4494C68.7897 53.0319 69.3793 52.3082 69.6305 51.8414C69.8817 51.3745 70.1304 51.0423 70.1835 51.1027C70.2364 51.1635 70.6763 51.7005 71.1608 52.2964ZM46.043 56.207L48.7062 58.802L47.7079 59.7649L46.7097 60.7277L44.0128 58.0997L41.3158 55.4717L42.2616 54.5418C42.7818 54.0303 43.2462 53.6117 43.2936 53.6117C43.341 53.6117 44.5784 54.7794 46.043 56.207ZM76.1156 59.5318C76.2805 59.808 76.9371 61.0436 77.5743 62.2778C81.0151 68.9392 82.8667 75.6655 83.4429 83.5945L83.5357 84.8711H78.3128H73.0902L72.8896 83.2076C72.7794 82.2926 72.5823 80.6388 72.4517 79.5324C72.1178 76.7034 71.9837 68.6364 72.2337 66.4184C72.6297 62.9062 73.5879 60.3519 74.8414 59.4683C75.1849 59.2263 75.5447 59.0284 75.6409 59.0288C75.7371 59.0294 75.9509 59.2558 76.1156 59.5318ZM54.587 69.7831V71.0984H42.2632H29.9394V69.7831V68.4677H42.2632H54.587V69.7831ZM47.5109 74.3481V75.5089H42.2632H37.0157L36.9677 74.5192C36.9413 73.9749 36.9574 73.4343 37.0033 73.318C37.0721 73.1433 38.0056 73.1132 42.2988 73.1467L47.5109 73.1876V74.3481ZM87.47 88.237L87.4241 89.591L57.9661 89.6302L28.5081 89.6693V88.2761V86.8829H58.0121H87.516L87.47 88.237Z" fill="#236261"/>
</g>
<defs>
<clipPath id="clip0_29_115">
<rect width="120" height="120" fill="white"/>
</clipPath>
</defs>
</svg>
