<svg width="120" height="120" viewBox="0 0 120 120" fill="none" xmlns="http://www.w3.org/2000/svg">
<g clip-path="url(#clip0_29_106)">
<path d="M60 120C93.1371 120 120 93.1371 120 60C120 26.8629 93.1371 0 60 0C26.8629 0 0 26.8629 0 60C0 93.1371 26.8629 120 60 120Z" fill="white"/>
<path d="M54.552 73.6723C56.3335 73.6723 58.0713 73.2734 59.6518 72.5127C61.5513 74.9902 64.524 76.4809 67.7146 76.4809C73.3149 76.4809 77.808 71.99 77.808 66.3876C77.808 61.7996 74.0872 58.0847 70.8049 54.8076C70.0833 54.087 69.4017 53.4065 68.8003 52.755C68.2184 52.1245 67.223 52.1205 66.6368 52.7475C65.8877 53.5479 65.0219 54.3903 64.1056 55.3019C61.431 50.7335 57.0521 45.8443 55.6377 44.3123C55.0542 43.6802 54.0582 43.6802 53.4736 44.3048C49.138 48.9303 42.7794 55.6131 42.7794 61.9531C42.7794 68.4157 48.0606 73.6723 54.552 73.6723ZM67.7089 55.8848C70.6641 58.885 74.8538 62.5946 74.8538 66.3872C74.8538 70.3236 71.651 73.5264 67.7146 73.5264C65.53 73.5264 63.4906 72.5447 62.1411 70.8992C63.9559 69.363 65.3079 67.2608 65.9125 64.8521C66.1936 63.7379 66.3081 62.5609 66.2607 61.5281C66.2095 60.3423 65.9268 59.1675 65.5031 58.0839C66.2717 57.3047 66.9763 56.6213 67.7089 55.8848ZM54.5335 47.4944C57.483 50.8173 60.8386 55.1221 62.4228 58.406C63.0242 59.6532 63.3171 60.8131 63.3171 61.9527C63.3171 66.8199 59.4122 70.7176 54.552 70.7176C49.6896 70.7176 45.7336 66.7861 45.7336 61.9527C45.7336 57.1891 50.7828 51.5133 54.5335 47.4944Z" fill="#236261"/>
<path d="M60.9704 28.4746C43.01 28.4746 28.4746 43.0086 28.4746 60.9704C28.4746 78.9293 43.0086 93.466 60.9704 93.466C78.9305 93.466 93.466 78.9319 93.466 60.9704C93.466 43.01 78.9319 28.4746 60.9704 28.4746ZM60.9704 90.5138C44.6805 90.5138 31.4282 77.2609 31.4282 60.9716C31.4282 44.6823 44.6809 31.4294 60.9704 31.4294C77.2597 31.4294 90.5125 44.6823 90.5125 60.9716C90.5125 77.2609 77.2597 90.5138 60.9704 90.5138Z" fill="#236261"/>
<path d="M60.972 35.8601C60.1564 35.8601 59.4948 36.5215 59.4948 37.3373C59.4948 38.1529 60.1564 38.8143 60.972 38.8143C73.1892 38.8143 83.1283 48.7538 83.1283 60.9706C83.1283 73.1876 73.1888 83.1271 60.972 83.1271C48.7552 83.1271 38.8157 73.1876 38.8157 60.9706C38.8157 60.155 38.1541 59.4936 37.3385 59.4936C36.5229 59.4936 35.8613 60.155 35.8613 60.9706C35.8613 74.8174 47.1258 86.0819 60.9726 86.0819C74.8192 86.0819 86.0837 74.8174 86.0837 60.9706C86.0837 47.124 74.8186 35.8601 60.972 35.8601Z" fill="#236261"/>
</g>
<defs>
<clipPath id="clip0_29_106">
<rect width="120" height="120" fill="white"/>
</clipPath>
</defs>
</svg>
