<svg width="120" height="120" viewBox="0 0 120 120" fill="none" xmlns="http://www.w3.org/2000/svg">
<g clip-path="url(#clip0_29_127)">
<path d="M60 120C93.1371 120 120 93.1371 120 60C120 26.8629 93.1371 0 60 0C26.8629 0 0 26.8629 0 60C0 93.1371 26.8629 120 60 120Z" fill="white"/>
<path d="M80.9218 49.1802V34.6118C80.9218 29.8632 76.5936 26 71.2734 26H48.7266C43.4064 26 39.0782 29.8632 39.0782 34.6118V49.1802C36.2 49.6132 34 51.8522 34 54.5422V85.0142C34 87.6106 36.2352 89.7486 39.0782 89.9784L49.2344 90H70.7656L80.9218 89.9784C83.7648 89.7486 86 87.6104 86 85.0142V54.5422C86 51.8522 83.8 49.6132 80.9218 49.1802ZM42.125 34.6118C42.125 31.3628 45.0864 28.7196 48.7266 28.7196H71.2734C74.9136 28.7196 77.875 31.3628 77.875 34.6118V49.415C75.5108 50.1634 73.8124 52.1788 73.8124 54.5422V56.3798C72.7854 55.7916 71.566 55.4488 70.2578 55.4488H49.7422C48.434 55.4488 47.2144 55.7916 46.1874 56.3798V54.5422C46.1874 52.1788 44.4892 50.1636 42.125 49.415V34.6118ZM73.8124 61.3412V62.701H46.1874V61.3412C46.1874 59.5916 47.7822 58.1684 49.7422 58.1684H70.2578C72.2178 58.1684 73.8124 59.5916 73.8124 61.3412ZM82.9532 85.0142C82.9532 86.2638 81.8142 87.2804 80.414 87.2804H39.586C38.1858 87.2804 37.0468 86.2638 37.0468 85.0142V54.5422C37.0468 53.0428 38.4138 51.8228 40.0938 51.8228C41.7738 51.8228 43.1406 53.0428 43.1406 54.5422V64.0608C43.1406 64.8116 43.8228 65.4204 44.664 65.4204H75.336C76.1772 65.4204 76.8594 64.8116 76.8594 64.0608V54.5422C76.8594 53.0428 78.2262 51.8228 79.9062 51.8228C81.5862 51.8228 82.9532 53.0428 82.9532 54.5422V85.0142Z" fill="#236261"/>
<path d="M36 80.5H84" stroke="#236261" stroke-width="3"/>
</g>
<defs>
<clipPath id="clip0_29_127">
<rect width="120" height="120" fill="white"/>
</clipPath>
</defs>
</svg>
