<svg width="179" height="50" viewBox="0 0 179 50" fill="none" xmlns="http://www.w3.org/2000/svg">
<g clip-path="url(#clip0_2_299)">
<path d="M37.461 0.000476837H37.458C35.9303 1.51658 33.8981 2.35102 31.7369 2.35102H0V39.1451H6.94845V35.3292L17.6018 24.7586L34.7183 41.7416L39.6318 36.8663L22.5155 19.8838L33.3205 9.16246C36.7398 8.8093 39.9089 7.31904 42.3732 4.8743L40.0079 2.52739L37.461 0.000476837ZM17.6018 15.0088L12.6887 19.8838L6.94845 25.5786V9.24567H23.4102L17.6018 15.0088ZM41.0225 38.2465L36.1086 43.1217L42.0335 49L46.9468 44.1246L41.0225 38.2465Z" fill="#236261"/>
<path d="M28.953 47.9H17.8673V47.0199H28.953V47.9Z" fill="#236261"/>
<path d="M28.953 31.401V47.9H28.0661V31.401H28.953Z" fill="#236261"/>
<path d="M45.8382 30.8512V19.852H44.9514V30.8512H45.8382Z" fill="#236261"/>
<path d="M29.2099 30.8512H45.8382V29.9713H29.2099V30.8512Z" fill="#236261"/>
<path d="M18.7542 31.401V47.9H17.8673V31.401H18.7542Z" fill="#236261"/>
<path d="M18.7542 32.281H7.66852V31.4011H18.7542V32.281Z" fill="#236261"/>
<path d="M29.2099 20.7319H45.8382V19.852H29.2099V20.7319Z" fill="#236261"/>
<path d="M30.0968 20.7319V9.73273H29.2099V20.7319H30.0968Z" fill="#236261"/>
<path d="M62.2237 35.3394H63.2722V37.2346L65.1356 35.3394H66.4447L64.3876 37.321L66.625 40.0709H65.3093L63.6262 37.97L63.2722 38.3481V40.0709H62.2237V35.3394Z" fill="#979899"/>
<path d="M67.4852 40.1239C67.3206 40.1239 67.1689 40.0971 67.031 40.0444V39.1963C67.0486 39.205 67.0744 39.2114 67.1078 39.2161C67.1412 39.2203 67.1689 39.2225 67.1913 39.2225C67.3606 39.2225 67.4999 39.1676 67.6087 39.057C67.718 38.9467 67.8029 38.7742 67.863 38.5399C67.9226 38.306 67.9636 38.0032 67.9861 37.6321C68.0085 37.2613 68.0199 36.8148 68.0199 36.2934V35.3393H71.4524V40.0708H70.4105V36.2139H69.0151C69.0012 36.7621 68.9826 37.2743 68.9578 37.7513C68.9335 38.2287 68.8748 38.6429 68.7808 38.9938C68.6878 39.3451 68.5404 39.6215 68.34 39.8221C68.1402 40.0232 67.8549 40.1239 67.4852 40.1239Z" fill="#979899"/>
<path d="M72.457 35.3394H73.4989V38.6195H73.519L75.3356 35.3394H76.5111V40.0709H75.4692V36.7838H75.4492L73.6325 40.0709H72.457V35.3394Z" fill="#979899"/>
<path d="M77.5186 35.3394H78.5672V37.1551H80.4974V35.3394H81.5464V40.0709H80.4974V38.03H78.5672V40.0709H77.5186V35.3394Z" fill="#979899"/>
<path d="M82.554 35.3394H83.5959V38.6195H83.6159L85.4326 35.3394H86.608V40.0709H85.5661V36.7838H85.5461L83.7295 40.0709H82.554V35.3394Z" fill="#979899"/>
<path d="M87.6156 35.3394H88.6646V37.2346L90.5275 35.3394H91.8366L89.7795 37.321L92.0169 40.0709H90.7017L89.0181 37.97L88.6646 38.3481V40.0709H87.6156V35.3394Z" fill="#979899"/>
<path d="M95.3024 38.2418L94.7013 36.5055H94.688L94.0668 38.2418H95.3024ZM94.167 35.3394H95.2423L97.0256 40.0709H95.9369L95.5762 39.0174H93.793L93.419 40.0709H92.3637L94.167 35.3394Z" fill="#979899"/>
<path d="M101.687 39.2226C101.941 39.2226 102.139 39.1751 102.282 39.0803C102.424 38.985 102.496 38.8118 102.496 38.5598C102.496 38.4364 102.475 38.3324 102.435 38.2488C102.395 38.1646 102.339 38.0971 102.265 38.0463C102.192 37.9959 102.105 37.9594 102.005 37.9372C101.904 37.915 101.796 37.9039 101.681 37.9039H100.612V39.2226H101.687ZM99.5635 35.3394H103.103V36.194H100.612V37.0889H101.854C102.095 37.0889 102.318 37.1176 102.522 37.1749C102.727 37.2322 102.905 37.3219 103.057 37.4436C103.208 37.565 103.327 37.7194 103.414 37.9071C103.501 38.0953 103.544 38.3172 103.544 38.5733C103.544 38.834 103.502 39.0581 103.417 39.2458C103.333 39.434 103.213 39.5893 103.06 39.7132C102.906 39.837 102.723 39.9276 102.509 39.985C102.295 40.0423 102.059 40.0709 101.801 40.0709H99.5635V35.3394Z" fill="#979899"/>
<path d="M104.294 35.3394H105.336V38.6195H105.356L107.173 35.3394H108.349V40.0709H107.307V36.7838H107.287L105.47 40.0709H104.294V35.3394Z" fill="#979899"/>
<path d="M111.477 39.3085C111.713 39.3085 111.913 39.2632 112.078 39.1726C112.243 39.0826 112.376 38.9619 112.479 38.8117C112.581 38.6614 112.656 38.4928 112.703 38.3045C112.749 38.1169 112.773 37.9236 112.773 37.7249C112.773 37.5174 112.749 37.3163 112.703 37.1218C112.656 36.9276 112.581 36.7542 112.479 36.6016C112.376 36.4491 112.243 36.328 112.078 36.2374C111.913 36.1468 111.713 36.1015 111.477 36.1015C111.241 36.1015 111.041 36.1468 110.876 36.2374C110.711 36.328 110.578 36.4491 110.475 36.6016C110.373 36.7542 110.298 36.9276 110.252 37.1218C110.205 37.3163 110.181 37.5174 110.181 37.7249C110.181 37.9236 110.205 38.1169 110.252 38.3045C110.298 38.4928 110.373 38.6614 110.475 38.8117C110.578 38.9619 110.711 39.0826 110.876 39.1726C111.041 39.2632 111.241 39.3085 111.477 39.3085ZM111.477 40.1766C111.107 40.1766 110.778 40.1138 110.489 39.988C110.199 39.8619 109.954 39.6885 109.754 39.4675C109.554 39.2471 109.4 38.9874 109.293 38.6891C109.186 38.3911 109.133 38.0697 109.133 37.7249C109.133 37.376 109.186 37.0491 109.293 36.744C109.4 36.4395 109.554 36.1741 109.754 35.9489C109.954 35.7239 110.199 35.5468 110.489 35.4188C110.778 35.2907 111.107 35.2266 111.477 35.2266C111.842 35.2266 112.17 35.2907 112.462 35.4188C112.754 35.5468 113 35.7239 113.2 35.9489C113.401 36.1741 113.554 36.4395 113.661 36.744C113.768 37.0491 113.821 37.376 113.821 37.7249C113.821 38.0697 113.768 38.3911 113.661 38.6891C113.554 38.9874 113.401 39.2471 113.2 39.4675C113 39.6885 112.754 39.8619 112.462 39.988C112.17 40.1138 111.842 40.1766 111.477 40.1766Z" fill="#979899"/>
<path d="M115.551 37.5924L114.015 35.3394H115.231L116.166 36.8504L117.134 35.3394H118.283L116.753 37.5992L118.416 40.0709H117.167L116.126 38.434L115.064 40.0709H113.888L115.551 37.5924Z" fill="#979899"/>
<path d="M121.701 38.2418L121.1 36.5055H121.087L120.466 38.2418H121.701ZM120.566 35.3394H121.641L123.425 40.0709H122.336L121.975 39.0174H120.192L119.818 40.0709H118.763L120.566 35.3394Z" fill="#979899"/>
<path d="M124.018 35.3394H125.067V37.2346L126.929 35.3394H128.239L126.182 37.321L128.419 40.0709H127.104L125.42 37.97L125.067 38.3481V40.0709H124.018V35.3394Z" fill="#979899"/>
<path d="M129.015 35.3394H130.057V38.6195H130.077L131.893 35.3394H133.069V40.0709H132.027V36.7838H132.007L130.19 40.0709H129.015V35.3394Z" fill="#979899"/>
<path d="M134.076 35.3394H135.125V37.1551H137.056V35.3394H138.104V40.0709H137.056V38.03H135.125V40.0709H134.076V35.3394Z" fill="#979899"/>
<path d="M139.128 35.3394H142.441V36.214H140.177V40.0709H139.128V35.3394Z" fill="#979899"/>
<path d="M145.039 38.2418L144.438 36.5055H144.425L143.803 38.2418H145.039ZM143.904 35.3394H144.979L146.762 40.0709H145.674L145.313 39.0174H143.53L143.156 40.0709H142.1L143.904 35.3394Z" fill="#979899"/>
<path d="M71.5301 22.8863C71.969 22.8863 72.3893 22.8438 72.79 22.7585C73.1912 22.6731 73.5443 22.5313 73.8496 22.3322C74.1549 22.1338 74.3982 21.8635 74.58 21.5225C74.7608 21.1817 74.8519 20.7463 74.8519 20.2159C74.8519 19.1743 74.5556 18.4308 73.9641 17.9854C73.372 17.5404 72.5897 17.3176 71.616 17.3176H66.7195V22.8863H71.5301ZM71.2725 14.2775C72.0744 14.2775 72.7328 14.0885 73.2485 13.7093C73.7637 13.331 74.0213 12.7147 74.0213 11.8627C74.0213 11.3894 73.9354 11.0009 73.7637 10.6979C73.592 10.3948 73.363 10.1579 73.0763 9.9873C72.79 9.81699 72.4609 9.69884 72.0888 9.63229C71.7162 9.56607 71.3298 9.5326 70.9286 9.5326H66.7195V14.2775H71.2725ZM71.8455 6.06673C72.8187 6.06673 73.7065 6.1516 74.5084 6.32224C75.3099 6.49254 75.9973 6.77229 76.5698 7.16019C77.1427 7.54865 77.5864 8.06526 77.9017 8.7089C78.2166 9.35293 78.374 10.1483 78.374 11.0954C78.374 12.1182 78.1402 12.9708 77.6727 13.6527C77.2043 14.3346 76.5125 14.8932 75.5961 15.3292C76.8565 15.6888 77.7963 16.3191 78.4169 17.2181C79.0371 18.1182 79.3477 19.2026 79.3477 20.4716C79.3477 21.4942 79.1473 22.3802 78.7466 23.1278C78.3454 23.8763 77.8058 24.4874 77.1284 24.9607C76.4505 25.4344 75.6772 25.7846 74.8089 26.0118C73.9402 26.2391 73.0481 26.3528 72.1317 26.3528H62.2237V6.06673H71.8455Z" fill="#1A181A"/>
<path d="M87.1161 6.06673V26.3528H82.6203V6.06673H87.1161Z" fill="#1A181A"/>
<path d="M95.197 18.7808C95.3974 19.586 95.717 20.3108 96.1564 20.9543C96.5953 21.5988 97.1682 22.1149 97.8743 22.503C98.5808 22.8913 99.4395 23.0852 100.452 23.0852C101.463 23.0852 102.322 22.8913 103.029 22.503C103.735 22.1149 104.308 21.5988 104.747 20.9543C105.186 20.3108 105.506 19.586 105.706 18.7808C105.906 17.9761 106.007 17.1474 106.007 16.2949C106.007 15.4048 105.906 14.5431 105.706 13.7093C105.506 12.8759 105.186 12.1324 104.747 11.4788C104.308 10.8258 103.735 10.3049 103.029 9.91645C102.322 9.5285 101.463 9.33401 100.452 9.33401C99.4395 9.33401 98.5808 9.5285 97.8743 9.91645C97.1682 10.3049 96.5953 10.8258 96.1564 11.4788C95.717 12.1324 95.3974 12.8759 95.197 13.7093C94.9966 14.5431 94.8964 15.4048 94.8964 16.2949C94.8964 17.1474 94.9966 17.9761 95.197 18.7808ZM91.0881 12.0759C91.5461 10.7786 92.2049 9.64631 93.0636 8.68056C93.9228 7.71429 94.9775 6.95714 96.2279 6.40764C97.4783 5.85809 98.8861 5.58337 100.452 5.58337C102.036 5.58337 103.449 5.85809 104.69 6.40764C105.93 6.95714 106.98 7.71429 107.84 8.68056C108.699 9.64631 109.358 10.7786 109.815 12.0759C110.273 13.3733 110.503 14.7796 110.503 16.2949C110.503 17.7722 110.273 19.1502 109.815 20.429C109.358 21.7074 108.699 22.8201 107.84 23.7671C106.98 24.7147 105.93 25.4577 104.69 25.9977C103.449 26.5376 102.036 26.8073 100.452 26.8073C98.8861 26.8073 97.4783 26.5376 96.2279 25.9977C94.9775 25.4577 93.9228 24.7147 93.0636 23.7671C92.2049 22.8201 91.5461 21.7074 91.0881 20.429C90.6296 19.1502 90.4007 17.7722 90.4007 16.2949C90.4007 14.7796 90.6296 13.3733 91.0881 12.0759Z" fill="#1A181A"/>
<path d="M123.151 15.2438C124.182 15.2438 124.955 15.0165 125.471 14.5618C125.986 14.1074 126.243 13.3684 126.243 12.3455C126.243 11.3611 125.986 10.6459 125.471 10.2005C124.955 9.75579 124.182 9.5326 123.151 9.5326H118.226V15.2438H123.151ZM124.755 6.06673C125.671 6.06673 126.496 6.2137 127.231 6.50712C127.966 6.80059 128.596 7.20312 129.122 7.71432C129.646 8.22595 130.048 8.81801 130.324 9.49029C130.6 10.1626 130.739 10.8873 130.739 11.6638C130.739 12.8573 130.486 13.8895 129.981 14.7604C129.475 15.6322 128.649 16.2949 127.503 16.7494V16.8065C128.057 16.9579 128.515 17.19 128.878 17.5024C129.24 17.8151 129.537 18.1844 129.766 18.6107C129.995 19.0366 130.162 19.5053 130.267 20.0169C130.371 20.5281 130.443 21.0397 130.482 21.5513C130.5 21.8736 130.52 22.2519 130.539 22.6877C130.558 23.1237 130.591 23.5682 130.639 24.0227C130.687 24.4774 130.763 24.9087 130.868 25.3159C130.973 25.7234 131.13 26.0684 131.341 26.3528H126.845C126.596 25.7091 126.444 24.942 126.387 24.0516C126.33 23.1611 126.243 22.3089 126.129 21.4942C125.976 20.4336 125.652 19.6573 125.155 19.1643C124.659 18.6723 123.848 18.4258 122.721 18.4258H118.226V26.3528H113.73V6.06673H124.755Z" fill="#1A181A"/>
<path d="M139.106 6.06673V26.3528H134.611V6.06673H139.106Z" fill="#1A181A"/>
<path d="M146.892 21.3524C147.14 21.8261 147.469 22.2094 147.88 22.503C148.29 22.7968 148.772 23.0141 149.326 23.1564C149.88 23.2984 150.452 23.3696 151.044 23.3696C151.445 23.3696 151.874 23.3367 152.333 23.2701C152.791 23.204 153.221 23.0762 153.621 22.8863C154.023 22.6973 154.356 22.4368 154.624 22.1049C154.891 21.774 155.025 21.3524 155.025 20.8408C155.025 20.2916 154.848 19.8462 154.495 19.5052C154.141 19.1643 153.679 18.8805 153.106 18.653C152.533 18.4258 151.884 18.2269 151.159 18.0565C150.433 17.8859 149.698 17.697 148.954 17.4884C148.19 17.2989 147.445 17.067 146.72 16.7919C145.995 16.5175 145.346 16.1625 144.773 15.7267C144.2 15.2913 143.737 14.7462 143.384 14.0931C143.031 13.4395 142.855 12.6485 142.855 11.7207C142.855 10.6791 143.079 9.77407 143.527 9.00731C143.976 8.24017 144.562 7.60078 145.289 7.08953C146.014 6.57795 146.835 6.19909 147.751 5.95295C148.668 5.70705 149.584 5.58337 150.5 5.58337C151.569 5.58337 152.595 5.70208 153.578 5.93837C154.562 6.17575 155.435 6.55906 156.198 7.08953C156.962 7.61981 157.568 8.29673 158.017 9.121C158.465 9.94471 158.69 10.9439 158.69 12.1182H154.337C154.299 11.5121 154.17 11.0101 153.951 10.6126C153.731 10.2145 153.44 9.90239 153.077 9.67495C152.714 9.4477 152.299 9.28667 151.832 9.19163C151.364 9.09715 150.853 9.04982 150.3 9.04982C149.937 9.04982 149.574 9.08811 149.212 9.16337C148.849 9.23915 148.519 9.37211 148.223 9.56145C147.928 9.75078 147.684 9.98726 147.494 10.2716C147.302 10.5555 147.207 10.9156 147.207 11.351C147.207 11.749 147.283 12.0712 147.436 12.3172C147.589 12.5636 147.889 12.791 148.338 12.9991C148.787 13.2076 149.407 13.4158 150.199 13.624C150.991 13.8329 152.027 14.0977 153.306 14.4195C153.688 14.4956 154.218 14.6326 154.896 14.8316C155.573 15.0305 156.246 15.3478 156.914 15.7836C157.582 16.2196 158.16 16.8019 158.647 17.5307C159.134 18.2601 159.377 19.1929 159.377 20.3295C159.377 21.2579 159.195 22.1195 158.833 22.9149C158.47 23.7106 157.931 24.3971 157.215 24.9749C156.499 25.5527 155.612 26.0027 154.552 26.3244C153.493 26.6462 152.266 26.8073 150.873 26.8073C149.746 26.8073 148.653 26.6695 147.594 26.3951C146.534 26.1209 145.599 25.6901 144.788 25.1027C143.976 24.5156 143.332 23.7671 142.855 22.858C142.377 21.9489 142.148 20.8694 142.167 19.6188H146.52C146.52 20.3007 146.644 20.879 146.892 21.3524Z" fill="#1A181A"/>
<path d="M177.769 6.06673V9.81699H166.974V14.1639H176.881V17.6302H166.974V22.6025H177.998V26.3528H162.478V6.06673H177.769Z" fill="#1A181A"/>
</g>
<defs>
<clipPath id="clip0_2_299">
<rect width="178" height="49" fill="white"/>
</clipPath>
</defs>
</svg>
