<svg width="200" height="56" viewBox="0 0 200 56" fill="none" xmlns="http://www.w3.org/2000/svg">
    <g clip-path="url(#clip0_2_261)">
        <path d="M42.1061 0H42.1028C40.3865 1.71647 38.1038 2.66119 35.676 2.66119H0.0253372V44.3178H7.83067V39.9977L19.7978 28.03L39.0251 47.2575L44.5446 41.7378L25.3174 22.511L37.4549 10.3728C41.2959 9.97296 44.8558 8.28575 47.6241 5.51792L44.967 2.86085L42.1061 0ZM19.7978 16.9916L14.2788 22.511L7.83067 28.9584V10.467H26.3224L19.7978 16.9916ZM46.1067 43.3005L40.5869 48.82L47.2424 55.4751L52.7616 49.9553L46.1067 43.3005Z" fill="white"/>
        <path d="M32.5476 54.2298H20.0948V53.2334H32.5476V54.2298Z" fill="white"/>
        <path d="M32.5484 35.5498V54.2293H31.5522V35.5498H32.5484Z" fill="white"/>
        <path d="M51.517 34.9274V22.4746H50.5207V34.9274H51.517Z" fill="white"/>
        <path d="M32.8354 34.9278H51.5144V33.9316H32.8354V34.9278Z" fill="white"/>
        <path d="M21.0911 35.5498V54.2293H20.0948V35.5498H21.0911Z" fill="white"/>
        <path d="M21.0902 36.5461H8.63747V35.5498H21.0902V36.5461Z" fill="white"/>
        <path d="M32.8354 23.4707H51.5144V22.4746H32.8354V23.4707Z" fill="white"/>
        <path d="M33.8317 23.4714V11.0186H32.8354V23.4714H33.8317Z" fill="white"/>
        <path d="M69.9207 40.0088H71.0986V42.1546L73.1918 40.0088H74.6622L72.3515 42.2523L74.8649 45.3656H73.3869L71.4962 42.987L71.0986 43.4151V45.3656H69.9207V40.0088Z" fill="white"/>
        <path d="M75.8306 45.4256C75.6459 45.4256 75.4754 45.3954 75.3205 45.3357V44.3755C75.3404 44.3853 75.3693 44.3926 75.4068 44.3979C75.4443 44.4027 75.4754 44.4051 75.5006 44.4051C75.6908 44.4051 75.8473 44.343 75.9696 44.2178C76.0922 44.0929 76.1875 43.8976 76.255 43.6324C76.3221 43.3675 76.3682 43.0247 76.3934 42.6045C76.4186 42.1848 76.4314 41.6792 76.4314 41.089V40.0088H80.2871V45.3656H79.1167V40.9989H77.5493C77.5338 41.6197 77.5129 42.1995 77.485 42.7395C77.4576 43.28 77.3917 43.7489 77.2862 44.1462C77.1817 44.544 77.0161 44.8569 76.791 45.084C76.5665 45.3117 76.246 45.4256 75.8306 45.4256Z" fill="white"/>
        <path d="M81.4191 40.0088H82.5895V43.7224H82.6121L84.6528 40.0088H85.9732V45.3656H84.8028V41.6442H84.7803L82.7396 45.3656H81.4191V40.0088Z" fill="white"/>
        <path d="M87.1039 40.0088H88.2818V42.0645H90.4499V40.0088H91.6283V45.3656H90.4499V43.0551H88.2818V45.3656H87.1039V40.0088Z" fill="white"/>
        <path d="M92.7591 40.0088H93.9295V43.7224H93.9521L95.9927 40.0088H97.3132V45.3656H96.1428V41.6442H96.1202L94.0795 45.3656H92.7591V40.0088Z" fill="white"/>
        <path d="M98.4437 40.0088H99.6222V42.1546L101.715 40.0088H103.185L100.875 42.2523L103.388 45.3656H101.91L100.019 42.987L99.6222 43.4151V45.3656H98.4437V40.0088Z" fill="white"/>
        <path d="M107.08 43.2947L106.405 41.3291H106.39L105.692 43.2947H107.08ZM105.805 40.0088H107.013L109.016 45.3656H107.793L107.388 44.173H105.385L104.964 45.3656H103.779L105.805 40.0088Z" fill="white"/>
        <path d="M114.251 44.4053C114.536 44.4053 114.759 44.3514 114.919 44.2441C115.079 44.1363 115.159 43.9401 115.159 43.6548C115.159 43.5151 115.137 43.3974 115.092 43.3027C115.047 43.2075 114.983 43.131 114.9 43.0734C114.818 43.0163 114.72 42.9751 114.608 42.95C114.495 42.9249 114.374 42.9123 114.244 42.9123H113.043V44.4053H114.251ZM111.866 40.0088H115.842V40.9764H113.043V41.9895H114.439C114.709 41.9895 114.959 42.022 115.189 42.0869C115.419 42.1519 115.619 42.2533 115.789 42.391C115.959 42.5286 116.093 42.7034 116.191 42.9159C116.288 43.1289 116.337 43.3801 116.337 43.6701C116.337 43.9652 116.289 44.219 116.194 44.4314C116.1 44.6445 115.966 44.8204 115.793 44.9606C115.621 45.1009 115.414 45.2034 115.174 45.2684C114.934 45.3333 114.669 45.3656 114.379 45.3656H111.866V40.0088Z" fill="white"/>
        <path d="M117.183 40.0088H118.354V43.7224H118.376L120.417 40.0088H121.737V45.3656H120.567V41.6442H120.544L118.504 45.3656H117.183V40.0088Z" fill="white"/>
        <path d="M125.249 44.5024C125.513 44.5024 125.738 44.4511 125.924 44.3484C126.109 44.2465 126.259 44.1099 126.374 43.9398C126.489 43.7696 126.573 43.5787 126.625 43.3657C126.678 43.1531 126.704 42.9344 126.704 42.7095C126.704 42.4745 126.678 42.2467 126.625 42.0266C126.573 41.8067 126.489 41.6103 126.374 41.4376C126.259 41.265 126.109 41.1279 125.924 41.0252C125.738 40.9227 125.513 40.8714 125.249 40.8714C124.983 40.8714 124.758 40.9227 124.573 41.0252C124.389 41.1279 124.239 41.265 124.123 41.4376C124.008 41.6103 123.924 41.8067 123.872 42.0266C123.819 42.2467 123.793 42.4745 123.793 42.7095C123.793 42.9344 123.819 43.1531 123.872 43.3657C123.924 43.5787 124.008 43.7696 124.123 43.9398C124.239 44.1099 124.389 44.2465 124.573 44.3484C124.758 44.4511 124.983 44.5024 125.249 44.5024ZM125.249 45.4852C124.833 45.4852 124.464 45.414 124.138 45.2717C123.813 45.1289 123.538 44.9325 123.313 44.6823C123.088 44.4328 122.915 44.1387 122.795 43.8011C122.675 43.4636 122.615 43.0997 122.615 42.7095C122.615 42.3144 122.675 41.9442 122.795 41.5989C122.915 41.2542 123.088 40.9537 123.313 40.6987C123.538 40.444 123.813 40.2435 124.138 40.0985C124.464 39.9535 124.833 39.8809 125.249 39.8809C125.659 39.8809 126.027 39.9535 126.355 40.0985C126.683 40.2435 126.959 40.444 127.184 40.6987C127.409 40.9537 127.582 41.2542 127.702 41.5989C127.822 41.9442 127.882 42.3144 127.882 42.7095C127.882 43.0997 127.822 43.4636 127.702 43.8011C127.582 44.1387 127.409 44.4328 127.184 44.6823C126.959 44.9325 126.683 45.1289 126.355 45.2717C126.027 45.414 125.659 45.4852 125.249 45.4852Z" fill="white"/>
        <path d="M129.827 42.5596L128.102 40.0088H129.467L130.518 41.7195L131.606 40.0088H132.896L131.178 42.5674L133.046 45.3656H131.643L130.473 43.5124L129.28 45.3656H127.959L129.827 42.5596Z" fill="white"/>
        <path d="M136.734 43.2947L136.058 41.3291H136.043L135.346 43.2947H136.734ZM135.458 40.0088H136.666L138.669 45.3656H137.446L137.041 44.173H135.038L134.618 45.3656H133.433L135.458 40.0088Z" fill="white"/>
        <path d="M139.337 40.0088H140.516V42.1546L142.608 40.0088H144.08L141.769 42.2523L144.282 45.3656H142.804L140.913 42.987L140.516 43.4151V45.3656H139.337V40.0088Z" fill="white"/>
        <path d="M144.949 40.0088H146.119V43.7224H146.142L148.182 40.0088H149.503V45.3656H148.332V41.6442H148.31L146.269 45.3656H144.949V40.0088Z" fill="white"/>
        <path d="M150.637 40.0088H151.814V42.0645H153.983V40.0088H155.16V45.3656H153.983V43.0551H151.814V45.3656H150.637V40.0088Z" fill="white"/>
        <path d="M156.312 40.0088H160.033V40.9991H157.491V45.3656H156.312V40.0088Z" fill="white"/>
        <path d="M162.951 43.2947L162.276 41.3291H162.261L161.563 43.2947H162.951ZM161.676 40.0088H162.885L164.887 45.3656H163.665L163.259 44.173H161.257L160.836 45.3656H159.651L161.676 40.0088Z" fill="white"/>
        <path d="M80.3749 25.9105C80.8679 25.9105 81.3399 25.8624 81.7902 25.7659C82.2407 25.6692 82.6373 25.5087 82.9804 25.2832C83.3233 25.0586 83.5966 24.7525 83.8008 24.3666C84.0039 23.9807 84.1063 23.4877 84.1063 22.8872C84.1063 21.708 83.7734 20.8663 83.1089 20.362C82.4438 19.8581 81.565 19.6058 80.4713 19.6058H74.9708V25.9105H80.3749ZM80.0855 16.164C80.9863 16.164 81.7258 15.9501 82.3051 15.5207C82.8839 15.0924 83.1733 14.3947 83.1733 13.4301C83.1733 12.8942 83.0768 12.4544 82.8839 12.1113C82.691 11.7682 82.4338 11.5 82.1116 11.3069C81.7902 11.1141 81.4203 10.9803 81.0024 10.9049C80.5839 10.83 80.1497 10.7921 79.6991 10.7921H74.9708V16.164H80.0855ZM80.7291 6.86816C81.8222 6.86816 82.8195 6.96426 83.7204 7.15744C84.6207 7.35025 85.3929 7.66697 86.036 8.10614C86.6796 8.54593 87.178 9.13081 87.5322 9.85953C87.8859 10.5887 88.0627 11.4892 88.0627 12.5614C88.0627 13.7194 87.8001 14.6846 87.275 15.4566C86.7488 16.2288 85.9717 16.8611 84.9422 17.3547C86.358 17.7618 87.4137 18.4754 88.111 19.4932C88.8076 20.5122 89.1564 21.74 89.1564 23.1766C89.1564 24.3344 88.9314 25.3376 88.4813 26.184C88.0305 27.0313 87.4244 27.7232 86.6635 28.2591C85.9021 28.7954 85.0333 29.1918 84.058 29.4492C83.0822 29.7064 82.08 29.8351 81.0505 29.8351H69.9207V6.86816H80.7291Z" fill="white"/>
        <path d="M97.8828 6.86816V29.8351H92.8325V6.86816H97.8828Z" fill="white"/>
        <path d="M106.962 21.2619C107.187 22.1735 107.546 22.9941 108.039 23.7226C108.532 24.4523 109.176 25.0365 109.969 25.476C110.763 25.9156 111.727 26.1352 112.864 26.1352C114.001 26.1352 114.966 25.9156 115.759 25.476C116.552 25.0365 117.196 24.4523 117.69 23.7226C118.182 22.9941 118.542 22.1735 118.767 21.2619C118.992 20.3508 119.105 19.4126 119.105 18.4474C119.105 17.4397 118.992 16.4641 118.767 15.52C118.542 14.5766 118.182 13.7349 117.69 12.9949C117.196 12.2555 116.552 11.6658 115.759 11.226C114.966 10.7868 114.001 10.5666 112.864 10.5666C111.727 10.5666 110.763 10.7868 109.969 11.226C109.176 11.6658 108.532 12.2555 108.039 12.9949C107.546 13.7349 107.187 14.5766 106.962 15.52C106.737 16.4641 106.624 17.4397 106.624 18.4474C106.624 19.4126 106.737 20.3508 106.962 21.2619ZM102.346 13.6708C102.86 12.2022 103.601 10.9202 104.565 9.82681C105.53 8.73284 106.715 7.87563 108.12 7.25352C109.524 6.63135 111.106 6.32031 112.864 6.32031C114.644 6.32031 116.231 6.63135 117.625 7.25352C119.019 7.87563 120.198 8.73284 121.163 9.82681C122.128 10.9202 122.868 12.2022 123.383 13.6708C123.897 15.1397 124.155 16.7319 124.155 18.4474C124.155 20.1199 123.897 21.6801 123.383 23.1279C122.868 24.5752 122.128 25.835 121.163 26.9072C120.198 27.98 119.019 28.8212 117.625 29.4326C116.231 30.0438 114.644 30.349 112.864 30.349C111.106 30.349 109.524 30.0438 108.12 29.4326C106.715 28.8212 105.53 27.98 104.565 26.9072C103.601 25.835 102.86 24.5752 102.346 23.1279C101.831 21.6801 101.574 20.1199 101.574 18.4474C101.574 16.7319 101.831 15.1397 102.346 13.6708Z" fill="white"/>
        <path d="M138.363 17.258C139.521 17.258 140.389 17.0008 140.968 16.486C141.547 15.9714 141.837 15.1348 141.837 13.9767C141.837 12.8622 141.547 12.0525 140.968 11.5482C140.389 11.0448 139.521 10.7921 138.363 10.7921H132.83V17.258H138.363ZM140.164 6.86816C141.193 6.86816 142.121 7.03456 142.946 7.36676C143.772 7.69902 144.48 8.15474 145.07 8.7335C145.659 9.31275 146.11 9.98304 146.421 10.7442C146.731 11.5053 146.887 12.3259 146.887 13.2049C146.887 14.5561 146.602 15.7249 146.035 16.7108C145.466 17.6977 144.538 18.4481 143.252 18.9625V19.0273C143.874 19.1987 144.388 19.4615 144.796 19.8152C145.203 20.1691 145.536 20.5872 145.793 21.07C146.051 21.5521 146.238 22.0826 146.356 22.6619C146.474 23.2407 146.554 23.8199 146.597 24.3992C146.618 24.7641 146.64 25.1924 146.662 25.6858C146.683 26.1793 146.721 26.6825 146.774 27.1971C146.828 27.7119 146.914 28.2002 147.032 28.6613C147.149 29.1225 147.326 29.5132 147.563 29.8351H142.512C142.233 29.1064 142.062 28.2379 141.998 27.2298C141.934 26.2216 141.837 25.2567 141.708 24.3344C141.537 23.1338 141.172 22.2548 140.614 21.6967C140.056 21.1396 139.145 20.8605 137.88 20.8605H132.83V29.8351H127.78V6.86816H140.164Z" fill="white"/>
        <path d="M156.288 6.86816V29.8351H151.238V6.86816H156.288Z" fill="white"/>
        <path d="M165.033 24.1733C165.311 24.7096 165.681 25.1436 166.143 25.476C166.604 25.8085 167.145 26.0545 167.768 26.2158C168.389 26.3765 169.032 26.4571 169.697 26.4571C170.148 26.4571 170.63 26.4198 171.144 26.3445C171.659 26.2696 172.141 26.1248 172.592 25.9099C173.043 25.6959 173.417 25.401 173.718 25.0253C174.017 24.6506 174.169 24.1733 174.169 23.5941C174.169 22.9723 173.969 22.468 173.574 22.0821C173.175 21.696 172.657 21.3748 172.013 21.1172C171.37 20.8599 170.641 20.6347 169.826 20.4419C169.011 20.2487 168.186 20.0348 167.348 19.7986C166.491 19.5841 165.654 19.3216 164.839 19.0101C164.024 18.6994 163.295 18.2975 162.653 17.8041C162.01 17.3111 161.488 16.694 161.093 15.9546C160.696 15.2147 160.497 14.3192 160.497 13.2687C160.497 12.0895 160.75 11.0648 161.254 10.1967C161.757 9.32823 162.416 8.60434 163.232 8.02552C164.045 7.44633 164.968 7.0174 165.998 6.73873C167.027 6.46034 168.056 6.32031 169.086 6.32031C170.286 6.32031 171.439 6.45471 172.544 6.72223C173.647 6.99098 174.629 7.42495 175.486 8.02552C176.345 8.62588 177.026 9.39226 177.529 10.3255C178.033 11.258 178.285 12.3893 178.285 13.7187H173.396C173.353 13.0326 173.209 12.4642 172.962 12.0142C172.715 11.5635 172.388 11.2101 171.982 10.9526C171.573 10.6953 171.107 10.513 170.582 10.4054C170.056 10.2984 169.482 10.2449 168.861 10.2449C168.453 10.2449 168.046 10.2882 167.638 10.3734C167.231 10.4592 166.861 10.6098 166.529 10.8241C166.197 11.0385 165.922 11.3062 165.708 11.6282C165.493 11.9495 165.386 12.3572 165.386 12.8502C165.386 13.3007 165.472 13.6656 165.644 13.944C165.816 14.2231 166.153 14.4805 166.657 14.716C167.162 14.9521 167.858 15.1878 168.748 15.4236C169.638 15.6601 170.802 15.9599 172.239 16.3242C172.667 16.4103 173.261 16.5655 174.023 16.7907C174.784 17.016 175.54 17.3752 176.292 17.8686C177.042 18.3621 177.69 19.0214 178.237 19.8466C178.785 20.6724 179.058 21.7285 179.058 23.0153C179.058 24.0663 178.854 25.0418 178.446 25.9423C178.039 26.8432 177.433 27.6204 176.629 28.2745C175.824 28.9286 174.828 29.4381 173.637 29.8024C172.448 30.1667 171.069 30.349 169.504 30.349C168.238 30.349 167.012 30.193 165.821 29.8824C164.63 29.5719 163.579 29.0842 162.668 28.4191C161.757 27.7545 161.033 26.9072 160.497 25.8778C159.961 24.8486 159.704 23.6265 159.725 22.2105H164.615C164.615 22.9826 164.754 23.6374 165.033 24.1733Z" fill="white"/>
        <path d="M199.716 6.86816V11.1141H187.59V16.0354H198.718V19.9599H187.59V25.5893H199.973V29.8351H182.538V6.86816H199.716Z" fill="white"/>
    </g>
    <defs>
        <clipPath id="clip0_2_261">
            <rect width="199.949" height="55.625" fill="white" transform="translate(0.0253372)"/>
        </clipPath>
    </defs>
</svg>
